<mxfile host="app.diagrams.net" modified="2021-03-10T20:29:30.716Z" agent="5.0 (Windows NT 10.0; Win64; x64) AppleWebKit/537.36 (KHTML, like Gecko) Chrome/89.0.4389.72 Safari/537.36 Edg/89.0.774.45" etag="7SMyUb-7-ehFu9UCh7pb" version="14.4.6" type="github">
  <diagram id="6a731a19-8d31-9384-78a2-239565b7b9f0" name="Page-1">
    <mxGraphModel dx="1466" dy="2491" grid="1" gridSize="10" guides="1" tooltips="1" connect="1" arrows="1" fold="1" page="1" pageScale="1" pageWidth="1169" pageHeight="827" background="#ffffff" math="0" shadow="0">
      <root>
        <mxCell id="0" />
        <mxCell id="1" parent="0" />
        <mxCell id="45" value="" style="edgeStyle=elbowEdgeStyle;elbow=horizontal;exitX=1;exitY=0.5;exitPerimeter=0;entryX=0.905;entryY=0.5;entryPerimeter=0;fontStyle=1;strokeColor=#003366;strokeWidth=1;html=1;" parent="1" target="34" edge="1">
          <mxGeometry width="100" height="100" as="geometry">
            <mxPoint x="380.5" y="1119.25" as="sourcePoint" />
            <mxPoint x="100" as="targetPoint" />
            <Array as="points">
              <mxPoint x="950" y="1320" />
            </Array>
          </mxGeometry>
        </mxCell>
        <mxCell id="EA7qH0lpIDVmVUFuew3k-89" value="" style="edgeStyle=orthogonalEdgeStyle;rounded=0;orthogonalLoop=1;jettySize=auto;html=1;" edge="1" parent="1" source="EA7qH0lpIDVmVUFuew3k-77" target="EA7qH0lpIDVmVUFuew3k-78">
          <mxGeometry relative="1" as="geometry" />
        </mxCell>
        <mxCell id="EA7qH0lpIDVmVUFuew3k-77" value="def get_temperature()" style="shape=mxgraph.flowchart.terminator;strokeWidth=2;gradientColor=none;gradientDirection=north;fontStyle=0;html=1;" vertex="1" parent="1">
          <mxGeometry x="55" y="-800" width="180" height="70" as="geometry" />
        </mxCell>
        <mxCell id="EA7qH0lpIDVmVUFuew3k-84" value="" style="edgeStyle=orthogonalEdgeStyle;rounded=0;orthogonalLoop=1;jettySize=auto;html=1;" edge="1" parent="1" source="EA7qH0lpIDVmVUFuew3k-78" target="EA7qH0lpIDVmVUFuew3k-83">
          <mxGeometry relative="1" as="geometry" />
        </mxCell>
        <mxCell id="EA7qH0lpIDVmVUFuew3k-78" value="Klassen importieren" style="rounded=0;whiteSpace=wrap;html=1;" vertex="1" parent="1">
          <mxGeometry x="85" y="-710" width="120" height="60" as="geometry" />
        </mxCell>
        <mxCell id="EA7qH0lpIDVmVUFuew3k-93" value="" style="edgeStyle=orthogonalEdgeStyle;rounded=0;orthogonalLoop=1;jettySize=auto;html=1;" edge="1" parent="1" source="EA7qH0lpIDVmVUFuew3k-83">
          <mxGeometry relative="1" as="geometry">
            <mxPoint x="145" y="-490" as="targetPoint" />
          </mxGeometry>
        </mxCell>
        <mxCell id="EA7qH0lpIDVmVUFuew3k-83" value="Variablen deklarieren" style="rounded=0;whiteSpace=wrap;html=1;" vertex="1" parent="1">
          <mxGeometry x="85" y="-620" width="120" height="60" as="geometry" />
        </mxCell>
        <mxCell id="EA7qH0lpIDVmVUFuew3k-100" value="" style="edgeStyle=orthogonalEdgeStyle;rounded=0;orthogonalLoop=1;jettySize=auto;html=1;" edge="1" parent="1" target="EA7qH0lpIDVmVUFuew3k-98">
          <mxGeometry relative="1" as="geometry">
            <mxPoint x="145" y="-470" as="sourcePoint" />
          </mxGeometry>
        </mxCell>
        <mxCell id="EA7qH0lpIDVmVUFuew3k-98" value="Return temperature" style="ellipse;whiteSpace=wrap;html=1;rounded=0;" vertex="1" parent="1">
          <mxGeometry x="85" y="-426" width="120" height="80" as="geometry" />
        </mxCell>
        <mxCell id="EA7qH0lpIDVmVUFuew3k-101" value="&lt;span&gt;Temperatur Sensor messen&lt;/span&gt;" style="shape=process;whiteSpace=wrap;html=1;backgroundOutline=1;" vertex="1" parent="1">
          <mxGeometry x="50" y="-530" width="190" height="60" as="geometry" />
        </mxCell>
      </root>
    </mxGraphModel>
  </diagram>
</mxfile>
